<?xml version="1.0" encoding="iso-8859-1"?>
<!-- Generator: Adobe Illustrator 19.0.0, SVG Export Plug-In . SVG Version: 6.00 Build 0)  -->
<svg version="1.1" id="Capa_1" xmlns="http://www.w3.org/2000/svg" xmlns:xlink="http://www.w3.org/1999/xlink" x="0px" y="0px"
	 viewBox="0 0 490 490" style="enable-background:new 0 0 490 490;" xml:space="preserve">
<g>
	<g>
		<g>
			<g>
				<g>
					<path d="M241.9,378.9c-7.3-8.3-7.3-20.8,1-29.1L355,245L241.9,140.1c-8.3-7.3-8.3-20.8-1-29.1c7.3-8.3,20.8-8.3,29.1-1
						l128.7,119.4c11.8,12.6,4.2,26,0,29.1L269.9,378.9C258.4,390.6,245,383.1,241.9,378.9z"/>
				</g>
				<g>
					<path d="M131.8,378.9c-7.3-8.3-7.3-20.8,1-29.1L245,245L131.8,140.1c-8.3-7.3-8.3-20.8-1-29.1s20.8-8.3,29.1-1l128.7,119.4
						c11.7,12.8,4.2,26,0,29.1L159.9,378.9C148.8,390.7,135,383.1,131.8,378.9z"/>
				</g>
			</g>
			<g>
				<path d="M245,490C110,490,0,380,0,245S110,0,245,0s245,110,245,245S380,490,245,490z M245,41.5C132.9,41.5,41.5,132.9,41.5,245
					S132.9,448.5,245,448.5S448.5,357.1,448.5,245S357.1,41.5,245,41.5z"/>
			</g>
		</g>
	</g>
</g>
<g>
</g>
<g>
</g>
<g>
</g>
<g>
</g>
<g>
</g>
<g>
</g>
<g>
</g>
<g>
</g>
<g>
</g>
<g>
</g>
<g>
</g>
<g>
</g>
<g>
</g>
<g>
</g>
<g>
</g>
</svg>
