<?xml version="1.0" encoding="utf-8"?>
<!-- Generator: Adobe Illustrator 19.1.0, SVG Export Plug-In . SVG Version: 6.00 Build 0)  -->
<svg version="1.1" id="Layer_1" xmlns="http://www.w3.org/2000/svg" xmlns:xlink="http://www.w3.org/1999/xlink" x="0px" y="0px"
	 viewBox="0 0 64 64" enable-background="new 0 0 64 64" xml:space="preserve">
<g id="Rewind-backward">
	<path d="M17.3594227,31.2304993C17.1317997,31.4209003,17,31.7021999,17,31.9990005
		c0,0.2968979,0.1317997,0.5782013,0.3594227,0.7686005l12,10.0009995C29.5429993,42.9208984,29.7705002,43,30,43
		c0.1445007,0,0.2891006-0.0312004,0.4237995-0.0946999C30.775423,42.7411995,31,42.3876991,31,42v-7.8652l10.3599014,8.6338005
		C41.5429993,42.9208984,41.7705002,43,42,43c0.1441002,0,0.2886009-0.0312004,0.4243011-0.0946999
		C42.7754211,42.7411995,43,42.3876991,43,42V22c0-0.3876991-0.2245789-0.7411995-0.5756989-0.9053001
		c-0.3496017-0.1660004-0.7656021-0.1112995-1.0643997,0.1368008L31,29.8635006V22
		c0-0.3876991-0.224577-0.7411995-0.5762005-0.9053001c-0.3486004-0.1639996-0.7645988-0.1112995-1.0643768,0.1368008
		L17.3594227,31.2304993z M31.5625,31.9990005L41,24.1348V39.8652L31.5625,31.9990005z M19.5625,31.9990005L29,24.1348V39.8652
		L19.5625,31.9990005z"/>
	<path d="M0.0000008,32c0,17.6730995,14.3268995,32,32,32s32-14.3269005,32-32S49.6730995,0,32,0S0.0000008,14.3268995,0.0000008,32
		z M2.0000007,32c0-16.5419998,13.4579992-30,30-30c16.542099,0,30,13.4580002,30,30c0,16.542099-13.457901,30-30,30
		C15.4580002,62,2.0000007,48.542099,2.0000007,32z"/>
</g>
<g>
</g>
<g>
</g>
<g>
</g>
<g>
</g>
<g>
</g>
<g>
</g>
<g>
</g>
<g>
</g>
<g>
</g>
<g>
</g>
<g>
</g>
<g>
</g>
<g>
</g>
<g>
</g>
<g>
</g>
</svg>
